<svg width="40mm" height="40mm" viewBox="0 0 40 40" xmlns="http://www.w3.org/2000/svg"><path style="fill:#fe9600;fill-opacity:1;stroke-width:1.00157;stroke-dasharray:12.0189,12.0189;stroke-opacity:.989809" d="M89.402 4.832c-5.777-.025-11.561.895-17.074 2.637-9.893 3.125-18.789 8.862-26.213 16.15a62.748 64.466 0 0 1 5.602 26.617 62.748 64.466 0 0 1-27.938 53.612c3.945 16.032 12.556 30.92 24.614 42.213l11.609-63.293c8.952 8.616 21.592 13.268 33.994 12.511 12.403-.756 24.382-6.91 32.22-16.55 7.84-9.642 11.42-22.624 9.63-34.92-1.79-12.296-8.925-23.72-19.188-30.725-6.366-4.346-13.836-7.013-21.492-7.906a51.686 51.686 0 0 0-5.764-.346zM46.107 23.627zm-2.632 2.715zm-1.416 1.58zm-1.13 1.318zm47.505 1.3a20.408 19.442 0 0 1 20.408 19.44 20.408 19.442 0 0 1-20.408 19.444A20.408 19.442 0 0 1 68.025 49.98a20.408 19.442 0 0 1 20.409-19.44zm-48.838.343zm-1.252 1.625zm-.979 1.328zm-3.129 4.684zm-1.923 3.27zm-1.749 3.294zm-1.593 3.35zm-1.479 3.494zm-1.322 3.554zm-1.166 3.612zm-1.02 3.697zm-.838 3.658zm-.69 3.756zm-1.067 11.297zm.127 7.584zm.322 3.78zm.387 3.019zm.41 2.549zm.584 2.957z" transform="scale(.26458)"/><path style="fill:#b731cb;fill-opacity:1;stroke-width:1.00157;stroke-dasharray:12.0189,12.0189;stroke-opacity:.989809" d="M46.115 23.62a79.044 79.044 0 0 0-9.726 11.6c-11.47 16.678-16.73 37.522-14.551 57.645.4 3.7 1.053 7.37 1.941 10.983a62.748 64.466 0 0 0 27.938-53.612 62.748 64.466 0 0 0-5.602-26.617z" transform="scale(.26458)"/></svg>