<svg width="105mm" height="59mm" viewBox="0 0 105 59" xmlns="http://www.w3.org/2000/svg"><path style="fill:#fe9600;fill-opacity:1;stroke-width:.264999;stroke-dasharray:3.18,3.18;stroke-opacity:.989809" d="M36.742 20.097a5.4 5.144 0 0 1-5.4 5.144 5.4 5.144 0 0 1-5.4-5.144 5.4 5.144 0 0 1 5.4-5.144 5.4 5.144 0 0 1 5.4 5.144zM23.82 28.77c2.368 2.28 5.712 3.511 8.994 3.31 3.281-.2 6.45-1.827 8.525-4.378 2.074-2.551 3.02-5.986 2.547-9.24-.473-3.253-2.36-6.275-5.076-8.129-1.684-1.15-3.66-1.855-5.686-2.092-2.026-.236-4.098-.008-6.043.607-3.89 1.228-7.198 3.981-9.509 7.342-3.035 4.413-4.427 9.928-3.85 15.252.576 5.325 3.117 10.414 7.026 14.075z" transform="translate(-9.789 -4.842)"/><path style="fill:#ffc501;fill-opacity:1;stroke:none;stroke-width:.264583px;stroke-linecap:butt;stroke-linejoin:miter;stroke-opacity:1" d="m44.474 22.279-1.542 11.17 6.639-5.076zm-8.487 20.81 4.998-32.304L61.27 27.89Z" transform="translate(-9.789 -4.842)"/><path style="fill:#ffee4a;fill-opacity:1;stroke:none;stroke-width:.264583px;stroke-linecap:butt;stroke-linejoin:miter;stroke-opacity:1" d="M43.198 44.01c6.267-4.227 10.966-10.724 13.019-17.999.617-2.187 1.003-4.437 1.694-6.602.692-2.165 1.727-4.285 3.41-5.812 1.994-1.807 4.841-2.628 7.49-2.158 2.65.469 5.041 2.218 6.292 4.6l-2.813 3.789a4.145 4.145 0 0 0-1.904-2.666 4.145 4.145 0 0 0-3.25-.415c-1.26.37-2.305 1.371-2.776 2.596-.47 1.226-.373 2.647.216 3.82.588 1.173 1.648 2.091 2.876 2.556 1.227.465 2.61.483 3.866.101.238-.072.478-.16.727-.164.235-.004.47.07.666.199.196.13.354.315.458.526.208.422.192.934.014 1.37-.178.435-.507.797-.89 1.07-.383.274-.82.464-1.262.621-3.237 1.15-7.04.545-9.76-1.551.01 4.83-1.855 9.642-5.116 13.206-3.49 3.813-8.547 6.147-13.712 6.327z" transform="translate(-9.789 -4.842)"/><g aria-label="rankenstein" style="font-size:11.9745px;line-height:1.25;font-family:'Cyberway Riders';-inkscape-font-specification:'Cyberway Riders';fill:#b731cb;stroke-width:.264999;stroke-dasharray:3.18001,3.18001;stroke-opacity:.989809"><path d="m53.855 32.092-1.093 6.244-.848-3.286 1.146-5.28 1.052.848-.163.924 1.719-1.473.941 1.38-1.52 1.368.152-1.216z"/><path d="m58.948 33.32-1.93 1.368v.672l1.316.24zm.818 2.537.462.082-.497.082-.087.438-1.713.638.222-.813-2.175.357-.088-2.871 3.128-.702.31-1.152-3.865-1.964 4.333.643.824 1.128zM62.41 32.168l-.825 4.49-1.094-1.608 1.146-5.28 1.053.848-.205 1.105 2.345-1.654.941 1.38-1.49 7.145-1.047-2.199 1.17-4.794zM67.239 34.167l-.439 2.491-1.093-1.608 1.544-7.753 1.052.848-.807 4.56 2.163-2.174 3.04-.737-4.7 3.912 4.613 4.186z"/><path d="m73.173 33.758 1.93-1.368v-.672l-1.316-.24zm-.07.252-.31 1.151 3.865 1.965-4.332-.643-.825-1.129.977-4.736 3.666-.18.087 2.87z"/><path d="m78.079 32.168-.824 4.49-1.094-1.608 1.146-5.28 1.053.848-.205 1.105L80.5 30.07l.941 1.38-1.49 7.145-1.048-2.199 1.17-4.794zM88.253 29.642l-4.86 2.35 2.281 1.977-.123 1.62-5.18 1.63 3.847-2.601-2.292-2.134.31-1.527z"/><path d="m88.972 30.905-1.146 7.069-1-2.924.754-3.777-2.865.749 2.994-1.398.66-3.327 1.053.848-.292 1.818 3.56-1.666-1.222 1.953z"/><path d="m91.217 33.758 1.93-1.368v-.672l-1.316-.24zm-.07.252-.31 1.151 3.865 1.965-4.333-.643-.824-1.129.976-4.736 3.666-.18.088 2.87z"/><path d="m95.269 29.9.386-1.93 1.052.848-.18 1.11zm1.17.566-1.234 7.508-1-2.924.918-4.402zM98.198 32.168l-.824 4.49-1.093-1.608 1.146-5.28 1.052.848-.205 1.105 2.345-1.654.941 1.38-1.49 7.145-1.047-2.199 1.17-4.794z"/></g><g aria-label="Annotator of Nightmares" style="font-weight:700;font-size:6.75772px;line-height:1.25;font-family:'Julius Sans One';-inkscape-font-specification:'Julius Sans One Bold';fill:#fe9600;stroke-width:.264999;stroke-dasharray:3.18,3.18;stroke-opacity:.989809"><path d="m6.245 49.627-.697 1.676h-.344l2.034-4.865h.19l2.04 4.865h-.365l-.696-1.676Zm1.067-2.649q-.007.007-.027.081-.094.291-.182.494l-.744 1.797h1.933l-.743-1.79q-.237-.514-.237-.582ZM10.387 51.303v-4.412h.149l2.878 3.31q.156.177.284.352.135.17.142.176-.013-.162-.013-.635v-3.176h.31v4.412h-.148l-2.933-3.365-.372-.453q.014.135.014.635v3.156zM15.76 51.303v-4.412h.148l2.879 3.31q.155.177.284.352.135.17.142.176-.014-.162-.014-.635v-3.176h.31v4.412h-.148l-2.933-3.365-.371-.453q.013.135.013.635v3.156zM23.071 51.37q-.94 0-1.574-.655-.636-.655-.636-1.601 0-.953.636-1.609.635-.655 1.574-.655.94 0 1.575.655.635.656.635 1.609 0 .946-.635 1.601-.635.656-1.575.656zm0-4.243q-.81 0-1.351.574-.534.575-.534 1.413 0 .831.534 1.405.54.568 1.351.568.818 0 1.352-.568.534-.574.534-1.405 0-.838-.534-1.413-.534-.574-1.352-.574zM27.268 47.195H25.78v-.277h3.278v.277h-1.487v4.108h-.304zM29.775 49.783l-.629 1.52h-.317l1.838-4.412h.182l1.852 4.412h-.345l-.635-1.52zm.966-2.392q-.101.304-.182.506l-.676 1.622h1.73l-.669-1.615q-.155-.378-.203-.513ZM33.958 47.195H32.47v-.277h3.278v.277h-1.487v4.108h-.304ZM38.459 51.37q-.94 0-1.575-.655t-.635-1.601q0-.953.635-1.609.635-.655 1.575-.655.939 0 1.574.655.635.656.635 1.609 0 .946-.635 1.601-.635.656-1.574.656zm0-4.243q-.811 0-1.352.574-.534.575-.534 1.413 0 .831.534 1.405.54.568 1.352.568.817 0 1.351-.568.534-.574.534-1.405 0-.838-.534-1.413-.534-.574-1.351-.574zM42.02 51.303v-4.365q.581-.047.987-.047.621 0 1.027.324.405.318.405.912 0 .399-.23.737-.23.338-.52.547.804 1.068.993 1.277.386.4.838.453l-.006.21q-.379-.007-.615-.109-.237-.108-.473-.358-.23-.25-1.02-1.344-.548 0-1.075-.034v1.797zm1.216-2.02q.264 0 .568-.352.304-.351.304-.817 0-.467-.318-.71-.317-.243-.824-.243-.27 0-.635.027v2.061q.486.034.905.034zM50.5 51.37q-.939 0-1.574-.655-.635-.655-.635-1.601 0-.953.635-1.609.635-.655 1.575-.655t1.574.655q.636.656.636 1.609 0 .946-.636 1.601-.635.656-1.574.656zm0-4.243q-.81 0-1.35.574-.535.575-.535 1.413 0 .831.534 1.405.54.568 1.352.568.818 0 1.351-.568.534-.574.534-1.405 0-.838-.534-1.413-.533-.574-1.351-.574zM54.062 51.303v-4.385h2.25v.27h-1.939v1.595h1.77v.263h-1.77v2.257zM60.34 47.242l.014.574v3.487h-.325v-4.872h.149l3.183 3.67q.324.385.5.614-.027-.324-.027-.743v-3.5h.324v4.872h-.148l-3.244-3.737q-.338-.385-.433-.514ZM65.861 51.303v-4.385h.311v4.385zM69.625 47.127q-.75 0-1.264.574-.506.568-.506 1.4 0 .83.574 1.412.574.574 1.352.574.783 0 1.216-.182V49.1h.31v1.947q-.526.324-1.493.324-.966 0-1.628-.656-.662-.655-.662-1.608 0-.96.594-1.608.602-.649 1.548-.649.763 0 1.493.236l-.08.257q-.704-.216-1.454-.216zM76.14 51.303v-2.216h-3.048v2.216h-.311v-4.385h.31v1.892h3.049v-1.892h.31v4.385zM78.856 47.195H77.37v-.277h3.277v.277H79.16v4.108h-.304zM83.492 51.074h-.182l-1.278-3.102q-.08-.183-.162-.426 0 .007-.013.074l-.02.183q-.014.108-.028.182l-.507 3.318h-.304l.717-4.412h.182l1.365 3.236q.162.406.162.426.048-.142.183-.419l1.52-3.243h.183l.669 4.412h-.325l-.48-3.331q-.047-.331-.047-.44l-.196.447zM87.357 49.783l-.628 1.52h-.318l1.838-4.412h.183l1.852 4.412h-.345l-.635-1.52zm.967-2.392q-.102.304-.183.506l-.675 1.622h1.73l-.67-1.615q-.155-.378-.202-.513zM91.176 51.303v-4.365q.58-.047.986-.047.622 0 1.027.324.406.318.406.912 0 .399-.23.737-.23.338-.52.547.804 1.068.993 1.277.385.4.838.453l-.007.21q-.378-.007-.615-.109-.236-.108-.473-.358-.23-.25-1.02-1.344-.548 0-1.075-.034v1.797zm1.216-2.02q.263 0 .568-.352.304-.351.304-.817 0-.467-.318-.71-.318-.243-.824-.243-.27 0-.636.027v2.061q.487.034.906.034zM95.284 51.303v-4.385h2.048v.27h-1.737v1.595h1.568v.263h-1.568v1.973H97.4v.284zM99.528 47.107q-.365 0-.595.175-.23.176-.23.494 0 .365.305.655.216.21.554.446.344.23.473.331.128.102.31.277.332.332.332.764 0 .561-.379.852-.371.283-1.047.283-.669 0-1.122-.351l.162-.237q.46.311.974.311.513 0 .797-.216.29-.216.29-.608 0-.338-.29-.622-.203-.203-.547-.44-.338-.236-.473-.337-.136-.108-.318-.284-.345-.344-.345-.797 0-.453.318-.71.324-.257.892-.257.568 0 1.02.223l-.115.25q-.419-.202-.966-.202z"/></g></svg>